<svg xmlns="http://www.w3.org/2000/svg" viewBox="0 0 1440 170">
  <path fill="#282c34" fill-opacity="1"
  d="M0,68L48,82.2C96,96,192,125,288,127.5C384,130,480,108,576,90.7C672,74,768,62,864,73.7C960,85,1056,119,1152,124.7C1248,130,1344,108,1440,87.8C1536,68,1632,51,1728,42.5C1824,34,1920,34,2016,42.5C2112,51,2208,68,2304,65.2C2400,62,2496,40,2592,36.8C2688,34,2784,51,2880,56.7C2976,62,3072,57,3168,68C3264,79,3360,108,3456,116.2C3552,125,3648,113,3744,104.8C3840,96,3936,91,4032,96.3C4128,102,4224,119,4320,113.3C4416,108,4512,79,4608,73.7C4704,68,4800,85,4896,87.8C4992,91,5088,79,5184,65.2C5280,51,5376,34,5472,36.8C5568,40,5664,62,5760,59.5C5856,57,5952,28,6048,31.2C6144,34,6240,68,6336,87.8C6432,108,6528,113,6624,104.8C6720,96,6816,74,6864,62.3L6912,51L6912,170L6864,170C6816,170,6720,170,6624,170C6528,170,6432,170,6336,170C6240,170,6144,170,6048,170C5952,170,5856,170,5760,170C5664,170,5568,170,5472,170C5376,170,5280,170,5184,170C5088,170,4992,170,4896,170C4800,170,4704,170,4608,170C4512,170,4416,170,4320,170C4224,170,4128,170,4032,170C3936,170,3840,170,3744,170C3648,170,3552,170,3456,170C3360,170,3264,170,3168,170C3072,170,2976,170,2880,170C2784,170,2688,170,2592,170C2496,170,2400,170,2304,170C2208,170,2112,170,2016,170C1920,170,1824,170,1728,170C1632,170,1536,170,1440,170C1344,170,1248,170,1152,170C1056,170,960,170,864,170C768,170,672,170,576,170C480,170,384,170,288,170C192,170,96,170,48,170L0,170Z">
  </path>
</svg>