<svg viewBox="0 0 506 998" fill="none" xmlns="http://www.w3.org/2000/svg">
  <path
    d="M96.3225 567.534C112.276 535.939 101.43 494.58 71.6651 473.511C51.5324 459.279 5.1758 428.684 -28.3189 407.293C-32.2719 404.768 -37.4536 406.003 -39.6318 409.967L-60.6426 448.211C-62.616 451.803 -61.4223 456.354 -57.8704 458.686C-31.2207 476.186 29.715 516.483 40.2903 524.029C44.0199 526.697 45.3938 531.936 43.3995 535.886C37.7224 547.093 3.93535 607.587 -10.7398 634.051C-12.6692 637.531 -11.5718 641.932 -8.21419 644.327L28.7728 670.712C32.6741 673.495 38.0533 672.46 40.3669 668.458C59.2322 635.827 85.1647 589.243 96.3225 567.534Z"
    fill="white" fill-opacity="0.3" />
  <path
    d="M223.695 574.856C251.593 519.929 232.716 447.803 180.752 410.782C128.178 373.238 6.11176 292.923 -66.4755 247.604C-70.4007 245.153 -75.4989 246.372 -77.6858 250.267L-98.6925 287.675C-100.73 291.302 -99.4905 295.946 -95.8629 298.274C-24.1752 344.269 108.285 432.006 149.483 461.219C175.501 479.867 184.94 515.93 170.955 543.256C148.282 587.938 74.6296 720.365 34.2041 790.58C32.1724 794.109 33.2702 798.656 36.7312 801.067L73.1502 826.44C77.0159 829.133 82.284 828.125 84.6139 824.218C126.154 754.574 194.833 631.71 223.695 574.856Z"
    fill="white" fill-opacity="0.2" />
  <path
    d="M353.034 582.033C372.586 543.565 376.927 498.312 365.485 454.562C354.042 410.812 327.822 372.416 291.431 346.497C204.617 284.431 5.43309 153.255 -105.287 84.8959C-109.194 82.4837 -114.191 83.7219 -116.387 87.573L-137.422 124.464C-139.498 128.106 -138.315 132.756 -134.65 135.084C-20.7278 207.456 185.726 343.596 260.196 396.909C308.719 431.467 326.35 498.881 300.282 550.173C259.481 630.791 144.27 837.785 79.3558 948.559C77.2764 952.107 78.4182 956.651 81.9269 959.065L118.106 983.959C121.951 986.605 127.134 985.654 129.474 981.801C193.333 876.663 305.532 676.142 353.034 582.033Z"
    fill="white" fill-opacity="0.1" />
</svg>