<svg viewBox="0 0 381 377" fill="none" xmlns="http://www.w3.org/2000/svg">
  <path
    d="M313.477 192.172C300.289 188.503 287.83 184.696 276.572 181.563L276.305 181.489C273.5 180.709 272.97 176.939 275.455 175.445C285.637 169.737 297.128 163.026 308.618 156.315C328.168 145.356 348.125 134.168 364.909 124.489C367.374 123.107 368.222 119.961 366.794 117.497L343.386 77.1012C341.184 73.3019 336.364 71.961 332.565 74.0908L332.084 74.3603C315.471 83.4037 297.143 93.6782 278.407 104.181C266.595 110.802 254.87 117.106 245.094 122.586C242.489 123.943 239.503 121.52 240.27 118.673L240.311 118.522C243.651 106.127 247.183 91.7365 251.037 77.4351C256.09 58.6843 261.142 39.9334 265.274 23.3178L265.505 22.4609C266.654 18.1951 264.136 13.777 259.879 12.5928L217.716 0.862783C213.46 -0.321334 209.078 2.17693 207.928 6.44281L206.841 10.4778C202.237 26.2788 197.527 43.7582 192.817 61.2378C188.963 75.5392 184.788 89.7512 181.448 102.146L181.407 102.297C180.64 105.144 176.855 105.683 175.294 103.167C168.6 92.0803 161.048 79.0469 153.495 66.0134C143.818 49.3142 133.905 32.2076 125.087 17.4554L124.337 16.1603C122.135 12.361 117.315 11.0201 113.516 13.1499L75.6895 34.3548C71.8127 36.5281 70.4785 41.4791 72.725 45.356L75.0125 49.3036C83.2731 63.559 92.156 79.354 101.361 95.2386C108.913 108.272 116.466 121.306 122.753 132.621C124.142 135.193 121.796 138.162 118.991 137.382L118.724 137.307C107.466 134.175 94.5139 130.914 81.6476 127.334C59.7749 121.249 37.2593 114.985 18.5175 110.113C15.8528 109.371 13.1092 110.935 12.3895 113.606L0.444608 157.934C-0.704904 162.2 1.81361 166.618 6.06987 167.802L6.40467 167.895C24.6535 173.314 45.2394 179.041 66.4688 184.947C79.6568 188.616 92.1158 192.424 103.374 195.556L103.641 195.63C106.446 196.411 106.977 200.18 104.491 201.675C94.309 207.383 82.8187 214.094 71.3288 220.805C51.7785 231.764 31.8208 242.952 15.036 252.631C12.5722 254.012 11.7245 257.159 13.1522 259.622L36.5606 300.019C38.7622 303.818 43.5818 305.159 47.3811 303.029L47.8619 302.76C64.4754 293.716 82.8036 283.441 101.539 272.939C113.351 266.317 125.077 260.014 134.852 254.534C137.456 253.177 140.443 255.599 139.676 258.446L139.635 258.598C136.295 270.992 132.763 285.383 128.909 299.685C123.857 318.436 118.803 337.186 114.672 353.802L114.441 354.658C113.291 358.924 115.81 363.342 120.066 364.527L162.23 376.257C166.486 377.441 170.869 374.943 172.018 370.677L173.105 366.642C177.623 351.159 182.419 333.361 187.129 315.882C190.983 301.58 195.158 287.368 198.498 274.974L198.539 274.822C199.306 271.975 203.091 271.436 204.651 273.953C211.346 285.039 218.898 298.073 226.451 311.106C236.127 327.805 246.126 344.594 254.858 359.664L255.609 360.959C257.811 364.759 262.63 366.099 266.43 363.97L304.256 342.765C308.133 340.592 309.467 335.64 307.221 331.763L304.933 327.816C296.672 313.56 287.789 297.765 278.585 281.881C271.032 268.847 263.48 255.814 257.193 244.499C255.804 241.927 258.15 238.957 260.955 239.738L261.222 239.812C272.48 242.944 285.11 246.116 298.298 249.785C320.171 255.87 342.687 262.135 361.751 267.097C364.415 267.838 367.159 266.274 367.879 263.603L379.824 219.275C380.973 215.009 378.455 210.591 374.198 209.407L373.864 209.314C354.971 203.716 334.385 197.989 313.477 192.172Z"
    fill="black" fill-opacity="0.5" />
</svg>