<svg width="441" height="1112" viewBox="0 0 441 1112" fill="none" xmlns="http://www.w3.org/2000/svg">
  <path
    d="M-15.2509 854.232C-20.455 859.003 -25.442 863.99 -30.2125 869.194C-31.7303 870.929 -32.5979 873.097 -32.5979 875.266C-32.5979 877.434 -31.7303 879.602 -30.2125 881.337C-25.442 886.541 -20.455 891.529 -15.2509 896.299C-11.7815 899.335 -6.57716 899.335 -3.10776 896.299C2.09635 891.529 7.0834 886.541 11.8538 881.337C13.3717 879.602 14.2393 877.434 14.2393 875.266C14.2393 873.097 13.3717 870.929 11.8538 869.194C7.0834 863.99 2.09635 859.003 -3.10776 854.232C-6.57716 850.98 -11.7815 850.98 -15.2509 854.232Z"
    fill="white" fill-opacity="0.1" />
  <path
    d="M-15.2509 747.765C-20.455 752.535 -25.442 757.522 -30.2125 762.726C-31.7303 764.461 -32.5979 766.63 -32.5979 768.798C-32.5979 770.966 -31.7303 773.135 -30.2125 774.869C-25.442 780.073 -20.455 785.061 -15.2509 789.831C-11.7815 792.867 -6.57716 792.867 -3.10776 789.831C2.09635 785.061 7.0834 780.073 11.8538 774.869C13.3717 773.135 14.2393 770.966 14.2393 768.798C14.2393 766.63 13.3717 764.461 11.8538 762.726C7.0834 757.522 2.09635 752.535 -3.10776 747.765C-6.57716 744.512 -11.7815 744.512 -15.2509 747.765Z"
    fill="white" fill-opacity="0.1" />
  <path
    d="M-15.2509 534.831C-20.455 539.601 -25.442 544.589 -30.2125 549.793C-31.7303 551.528 -32.5979 553.696 -32.5979 555.864C-32.5979 558.033 -31.7303 560.201 -30.2125 561.936C-25.442 567.14 -20.455 572.127 -15.2509 576.898C-11.7815 579.933 -6.57716 579.933 -3.10776 576.898C2.09635 572.127 7.0834 567.14 11.8538 561.936C13.3717 560.201 14.2393 558.033 14.2393 555.864C14.2393 553.696 13.3717 551.528 11.8538 549.793C7.0834 544.589 2.09635 539.601 -3.10776 534.831C-6.57716 531.578 -11.7815 531.578 -15.2509 534.831Z"
    fill="white" fill-opacity="0.1" />
  <path
    d="M-15.2509 428.147C-20.455 432.917 -25.442 437.905 -30.2125 443.109C-31.7303 444.843 -32.5979 447.012 -32.5979 449.18C-32.5979 451.349 -31.7303 453.517 -30.2125 455.252C-25.442 460.456 -20.455 465.443 -15.2509 470.213C-11.7815 473.249 -6.57716 473.249 -3.10776 470.213C2.09635 465.443 7.0834 460.456 11.8538 455.252C13.3717 453.517 14.2393 451.349 14.2393 449.18C14.2393 447.012 13.3717 444.843 11.8538 443.109C7.0834 437.905 2.09635 432.917 -3.10776 428.147C-6.57716 425.111 -11.7815 425.111 -15.2509 428.147Z"
    fill="white" fill-opacity="0.1" />
  <path
    d="M11.856 1082.13C7.08559 1076.92 2.09853 1071.94 -3.10557 1067.17C-4.84028 1065.65 -7.00876 1064.78 -9.17714 1064.78C-11.3455 1064.78 -13.514 1065.65 -15.2487 1067.17C-20.4528 1071.94 -25.4399 1076.92 -30.2103 1082.13C-33.246 1085.6 -33.246 1090.8 -30.2103 1094.27C-25.4399 1099.48 -20.4528 1104.46 -15.2487 1109.23C-13.514 1110.75 -11.3455 1111.62 -9.17714 1111.62C-7.00876 1111.62 -4.84028 1110.75 -3.10558 1109.23C2.09853 1104.46 7.08559 1099.48 11.856 1094.27C14.8917 1090.8 14.8917 1085.6 11.856 1082.13Z"
    fill="white" fill-opacity="0.1" />
  <path
    d="M91.2172 854.232C86.013 859.003 81.0257 863.99 76.2553 869.194C74.7374 870.929 73.8701 873.097 73.8701 875.266C73.8701 877.434 74.7374 879.602 76.2553 881.337C81.0257 886.541 86.013 891.529 91.2172 896.299C94.6866 899.335 99.8906 899.335 103.36 896.299C108.564 891.529 113.551 886.541 118.322 881.337C119.84 879.602 120.707 877.434 120.707 875.266C120.707 873.097 119.84 870.929 118.322 869.194C113.551 863.99 108.564 859.003 103.36 854.232C99.8906 850.98 94.6866 850.98 91.2172 854.232Z"
    fill="white" fill-opacity="0.1" />
  <path
    d="M91.2172 641.296C86.013 646.066 81.0257 651.053 76.2553 656.258C74.7374 657.992 73.8701 660.161 73.8701 662.329C73.8701 664.497 74.7374 666.666 76.2553 668.401C81.0257 673.605 86.013 678.592 91.2172 683.362C94.6866 686.398 99.8906 686.398 103.36 683.362C108.564 678.592 113.551 673.605 118.322 668.401C119.84 666.666 120.707 664.497 120.707 662.329C120.707 660.161 119.84 657.992 118.322 656.258C113.551 651.053 108.564 646.066 103.36 641.296C99.8906 638.043 94.6866 638.043 91.2172 641.296Z"
    fill="white" fill-opacity="0.1" />
  <path
    d="M91.2172 534.831C86.013 539.601 81.0257 544.589 76.2553 549.793C74.7374 551.528 73.8701 553.696 73.8701 555.864C73.8701 558.033 74.7374 560.201 76.2553 561.936C81.0257 567.14 86.013 572.127 91.2172 576.898C94.6866 579.933 99.8906 579.933 103.36 576.898C108.564 572.127 113.551 567.14 118.322 561.936C119.84 560.201 120.707 558.033 120.707 555.864C120.707 553.696 119.84 551.528 118.322 549.793C113.551 544.589 108.564 539.601 103.36 534.831C99.8906 531.578 94.6866 531.578 91.2172 534.831Z"
    fill="white" fill-opacity="0.1" />
  <path
    d="M91.2172 428.147C86.013 432.917 81.0257 437.905 76.2553 443.109C74.7374 444.843 73.8701 447.012 73.8701 449.18C73.8701 451.349 74.7374 453.517 76.2553 455.252C81.0257 460.456 86.013 465.443 91.2172 470.213C94.6866 473.249 99.8906 473.249 103.36 470.213C108.564 465.443 113.551 460.456 118.322 455.252C119.84 453.517 120.707 451.349 120.707 449.18C120.707 447.012 119.84 444.843 118.322 443.109C113.551 437.905 108.564 432.917 103.36 428.147C99.8906 425.111 94.6866 425.111 91.2172 428.147Z"
    fill="white" fill-opacity="0.1" />
  <path
    d="M91.2172 960.697C86.013 965.468 81.0257 970.455 76.2553 975.659C74.7374 977.394 73.8701 979.562 73.8701 981.731C73.8701 983.899 74.7374 986.067 76.2553 987.802C81.0257 993.006 86.013 997.993 91.2172 1002.76C94.6866 1005.8 99.8906 1005.8 103.36 1002.76C108.564 997.993 113.551 993.006 118.322 987.802C119.84 986.067 120.707 983.899 120.707 981.731C120.707 979.562 119.84 977.394 118.322 975.659C113.551 970.455 108.564 965.468 103.36 960.697C99.8906 957.445 94.6866 957.445 91.2172 960.697Z"
    fill="white" fill-opacity="0.1" />
  <path
    d="M304.155 854.232C298.951 859.003 293.963 863.99 289.193 869.194C287.675 870.929 286.808 873.097 286.808 875.266C286.808 877.434 287.675 879.602 289.193 881.337C293.963 886.541 298.951 891.529 304.155 896.299C307.624 899.335 312.828 899.335 316.298 896.299C321.502 891.529 326.489 886.541 331.259 881.337C332.777 879.602 333.645 877.434 333.645 875.266C333.645 873.097 332.777 870.929 331.259 869.194C326.489 863.99 321.502 859.003 316.298 854.232C312.828 850.98 307.624 850.98 304.155 854.232Z"
    fill="white" fill-opacity="0.1" />
  <path
    d="M197.686 747.765C192.482 752.535 187.494 757.522 182.724 762.726C181.206 764.461 180.339 766.63 180.339 768.798C180.339 770.966 181.206 773.135 182.724 774.869C187.494 780.073 192.482 785.061 197.686 789.831C201.155 792.867 206.359 792.867 209.829 789.831C215.033 785.061 220.02 780.073 224.791 774.869C226.308 773.135 227.176 770.966 227.176 768.798C227.176 766.63 226.308 764.461 224.791 762.726C220.02 757.522 215.033 752.535 209.829 747.765C206.359 744.512 201.155 744.512 197.686 747.765Z"
    fill="white" fill-opacity="0.1" />
  <path
    d="M197.686 641.296C192.482 646.066 187.494 651.053 182.724 656.258C181.206 657.992 180.339 660.161 180.339 662.329C180.339 664.497 181.206 666.666 182.724 668.401C187.494 673.605 192.482 678.592 197.686 683.362C201.155 686.398 206.359 686.398 209.829 683.362C215.033 678.592 220.02 673.605 224.791 668.401C226.308 666.666 227.176 664.497 227.176 662.329C227.176 660.161 226.308 657.992 224.791 656.258C220.02 651.053 215.033 646.066 209.829 641.296C206.359 638.043 201.155 638.043 197.686 641.296Z"
    fill="white" fill-opacity="0.1" />
  <path
    d="M197.686 428.147C192.482 432.917 187.494 437.905 182.724 443.109C181.206 444.843 180.339 447.012 180.339 449.18C180.339 451.349 181.206 453.517 182.724 455.252C187.494 460.456 192.482 465.443 197.686 470.213C201.155 473.249 206.359 473.249 209.829 470.213C215.033 465.443 220.02 460.456 224.791 455.252C226.308 453.517 227.176 451.349 227.176 449.18C227.176 447.012 226.308 444.843 224.791 443.109C220.02 437.905 215.033 432.917 209.829 428.147C206.359 425.111 201.155 425.111 197.686 428.147Z"
    fill="white" fill-opacity="0.1" />
  <path
    d="M410.619 854.232C405.415 859.003 400.428 863.99 395.658 869.194C394.14 870.929 393.272 873.097 393.272 875.266C393.272 877.434 394.14 879.602 395.658 881.337C400.428 886.541 405.415 891.529 410.619 896.299C414.089 899.335 419.293 899.335 422.762 896.299C427.966 891.529 432.954 886.541 437.724 881.337C439.242 879.602 440.109 877.434 440.109 875.266C440.109 873.097 439.242 870.929 437.724 869.194C432.954 863.99 427.966 859.003 422.762 854.232C419.293 850.98 414.089 850.98 410.619 854.232Z"
    fill="white" fill-opacity="0.1" />
  <path
    d="M304.155 747.765C298.951 752.535 293.963 757.522 289.193 762.726C287.675 764.461 286.808 766.63 286.808 768.798C286.808 770.966 287.675 773.135 289.193 774.869C293.963 780.073 298.951 785.061 304.155 789.831C307.624 792.867 312.828 792.867 316.298 789.831C321.502 785.061 326.489 780.073 331.259 774.869C332.777 773.135 333.645 770.966 333.645 768.798C333.645 766.63 332.777 764.461 331.259 762.726C326.489 757.522 321.502 752.535 316.298 747.765C312.828 744.512 307.624 744.512 304.155 747.765Z"
    fill="white" fill-opacity="0.1" />
  <path
    d="M304.155 641.296C298.951 646.066 293.963 651.053 289.193 656.258C287.675 657.992 286.808 660.161 286.808 662.329C286.808 664.497 287.675 666.666 289.193 668.401C293.963 673.605 298.951 678.592 304.155 683.362C307.624 686.398 312.828 686.398 316.298 683.362C321.502 678.592 326.489 673.605 331.259 668.401C332.777 666.666 333.645 664.497 333.645 662.329C333.645 660.161 332.777 657.992 331.259 656.258C326.489 651.053 321.502 646.066 316.298 641.296C312.828 638.043 307.624 638.043 304.155 641.296Z"
    fill="white" fill-opacity="0.1" />
  <path
    d="M304.155 428.147C298.951 432.917 293.963 437.905 289.193 443.109C287.675 444.843 286.808 447.012 286.808 449.18C286.808 451.349 287.675 453.517 289.193 455.252C293.963 460.456 298.951 465.443 304.155 470.213C307.624 473.249 312.828 473.249 316.298 470.213C321.502 465.443 326.489 460.456 331.259 455.252C332.777 453.517 333.645 451.349 333.645 449.18C333.645 447.012 332.777 444.843 331.259 443.109C326.489 437.905 321.502 432.917 316.298 428.147C312.828 425.111 307.624 425.111 304.155 428.147Z"
    fill="white" fill-opacity="0.1" />
  <path
    d="M304.155 960.697C298.951 965.468 293.963 970.455 289.193 975.659C287.675 977.394 286.808 979.562 286.808 981.731C286.808 983.899 287.675 986.067 289.193 987.802C293.963 993.006 298.951 997.993 304.155 1002.76C307.624 1005.8 312.828 1005.8 316.298 1002.76C321.502 997.993 326.489 993.006 331.259 987.802C332.777 986.067 333.645 983.899 333.645 981.731C333.645 979.562 332.777 977.394 331.259 975.659C326.489 970.455 321.502 965.468 316.298 960.697C312.828 957.445 307.624 957.445 304.155 960.697Z"
    fill="white" fill-opacity="0.1" />
  <path
    d="M91.2172 321.678C86.013 326.449 81.0257 331.436 76.2553 336.64C74.7374 338.375 73.8701 340.543 73.8701 342.711C73.8701 344.88 74.7374 347.048 76.2553 348.783C81.0257 353.987 86.013 358.974 91.2172 363.745C94.6866 366.78 99.8906 366.78 103.36 363.745C108.564 358.974 113.551 353.987 118.322 348.783C119.84 347.048 120.707 344.88 120.707 342.711C120.707 340.543 119.84 338.375 118.322 336.64C113.551 331.436 108.564 326.449 103.36 321.678C99.8906 318.642 94.6866 318.642 91.2172 321.678Z"
    fill="white" fill-opacity="0.1" />
  <path
    d="M197.686 108.742C192.482 113.513 187.494 118.5 182.724 123.704C181.206 125.439 180.339 127.607 180.339 129.775C180.339 131.944 181.206 134.112 182.724 135.847C187.494 141.051 192.482 146.038 197.686 150.809C201.155 153.844 206.359 153.844 209.829 150.809C215.033 146.038 220.02 141.051 224.791 135.847C226.308 134.112 227.176 131.944 227.176 129.775C227.176 127.607 226.308 125.439 224.791 123.704C220.02 118.5 215.033 113.513 209.829 108.742C206.359 105.706 201.155 105.706 197.686 108.742Z"
    fill="white" fill-opacity="0.1" />
  <path
    d="M224.789 443.324C220.018 438.12 215.031 433.133 209.827 428.362C208.092 426.844 205.924 425.977 203.755 425.977C201.587 425.977 199.419 426.844 197.684 428.362C192.48 433.133 187.492 438.12 182.722 443.324C179.686 446.793 179.686 451.998 182.722 455.467C187.492 460.671 192.48 465.658 197.684 470.429C199.419 471.947 201.587 472.814 203.755 472.814C205.924 472.814 208.092 471.947 209.827 470.429C215.031 465.658 220.018 460.671 224.789 455.467C227.824 451.998 227.824 446.793 224.789 443.324Z"
    fill="white" fill-opacity="0.1" />
  <path
    d="M304.155 215.213C298.951 219.983 293.963 224.971 289.193 230.175C287.675 231.909 286.808 234.078 286.808 236.246C286.808 238.414 287.675 240.583 289.193 242.318C293.963 247.522 298.951 252.509 304.155 257.279C307.624 260.315 312.828 260.315 316.298 257.279C321.502 252.509 326.489 247.522 331.259 242.318C332.777 240.583 333.645 238.414 333.645 236.246C333.645 234.078 332.777 231.909 331.259 230.175C326.489 224.971 321.502 219.983 316.298 215.213C312.828 212.177 307.624 212.177 304.155 215.213Z"
    fill="white" fill-opacity="0.1" />
</svg>