<svg viewBox="0 0 468 739" fill="none" xmlns="http://www.w3.org/2000/svg">
  <path d="M15.613 347.1C-14.8904 367.476 -44.8794 388.88 -73.9891 411.581C-78.0978 414.786 -76.4533 421.261 -71.3359 422.102L140.653 456.929C145.783 457.772 149.532 452.151 146.72 447.807C126.957 417.274 106.145 387.327 84.0136 358.338C67.6741 336.966 37.9961 332.09 15.613 347.1Z" fill="white" fill-opacity="0.1" />
  <path d="M42.7321 188.708C12.2287 209.085 -17.7603 230.488 -46.87 253.189C-50.9787 256.393 -49.3342 262.869 -44.2168 263.71L167.772 298.537C172.902 299.379 176.651 293.759 173.84 289.415C154.076 258.882 133.264 228.935 111.133 199.946C94.7932 178.574 65.1152 173.698 42.7321 188.708Z" fill="white" fill-opacity="0.1" />
  <path d="M69.8015 30.6025C39.2981 50.9786 9.30908 72.3821 -19.8007 95.0833C-23.9093 98.2875 -22.2648 104.763 -17.1475 105.604L194.841 140.431C199.972 141.273 203.721 135.653 200.909 131.309C181.146 100.776 160.333 70.8287 138.202 41.8398C121.863 20.4677 92.1845 15.592 69.8015 30.6025Z" fill="white" fill-opacity="0.1" />
  <path d="M214.072 624.1C183.569 644.476 153.58 665.879 124.47 688.58C120.361 691.784 122.006 698.26 127.123 699.1L338.828 733.88C343.959 734.723 347.708 729.102 344.896 724.758C325.133 694.227 304.321 664.279 282.19 635.291C266.133 613.966 236.455 609.09 214.072 624.1Z" fill="white" fill-opacity="0.1" />
  <path d="M241.141 465.995C210.638 486.371 180.649 507.774 151.539 530.475C147.431 533.679 149.075 540.155 154.193 540.995L365.898 575.775C371.028 576.618 374.777 570.997 371.965 566.654C352.202 536.122 331.39 506.175 309.259 477.186C293.202 455.861 263.524 450.985 241.141 465.995Z" fill="white" fill-opacity="0.1" />
  <path d="M268.26 307.602C237.757 327.977 207.768 349.381 178.658 372.081C174.55 375.285 176.194 381.761 181.312 382.602L393.017 417.382C398.147 418.225 401.896 412.604 399.085 408.26C379.321 377.728 358.509 347.781 336.378 318.792C320.321 297.467 290.643 292.591 268.26 307.602Z" fill="white" fill-opacity="0.1" />
</svg>